<svg xmlns="http://www.w3.org/2000/svg" version="1.0" width="1122.000000pt" height="1280.000000pt" viewBox="0 0 1122.000000 1280.000000" preserveAspectRatio="xMidYMid meet">
<metadata fill="#e2e8f0">
Created by potrace 1.15, written by Peter Selinger 2001-2017
</metadata>
<g transform="translate(0.000000,1280.000000) scale(0.100000,-0.100000)" fill="#e2e8f0" stroke="none">
<path d="M4441 12774 c-35 -30 -75 -94 -86 -139 -3 -16 -11 -36 -17 -42 -15 -19 -69 -16 -121 7 -25 11 -82 25 -126 32 -80 11 -81 11 -121 -17 -25 -17 -63 -32 -97 -37 -45 -7 -65 -17 -104 -52 -63 -57 -175 -94 -314 -106 -56 -4 -111 -13 -123 -19 -35 -19 -98 -98 -111 -140 -15 -50 -1 -108 37 -162 36 -50 57 -61 126 -68 74 -8 85 -22 68 -88 -20 -72 -96 -221 -169 -331 -158 -234 -305 -526 -363 -715 -67 -220 -48 -478 57 -782 53 -155 53 -152 2 -165 -196 -53 -387 -257 -433 -462 -25 -110 -29 -212 -15 -438 7 -121 9 -223 5 -227 -4 -4 -37 0 -74 10 -138 35 -216 41 -492 42 -258 0 -281 -1 -365 -24 -189 -50 -363 -122 -491 -206 -46 -30 -98 -62 -116 -71 -18 -9 -61 -41 -94 -71 l-62 -53 -103 50 c-57 28 -121 55 -144 62 -22 6 -82 26 -133 44 -149 54 -158 47 -87 -62 25 -37 45 -72 45 -76 0 -12 -43 -10 -145 7 -50 8 -109 15 -132 15 -36 0 -43 -3 -43 -19 0 -29 107 -166 198 -253 80 -76 88 -81 200 -108 46 -12 53 -29 23 -59 -42 -42 -37 -204 20 -610 59 -410 159 -716 255 -773 19 -11 36 -30 38 -42 2 -11 9 -49 15 -84 14 -86 49 -157 107 -218 27 -27 62 -67 77 -87 32 -43 69 -49 119 -19 45 26 105 124 134 218 14 46 27 84 30 84 3 0 17 -14 31 -30 30 -36 111 -80 146 -80 33 0 48 21 55 76 l5 46 61 -4 c34 -3 131 -19 217 -37 l156 -33 57 -227 c31 -124 59 -248 63 -275 3 -27 0 -126 -7 -220 -10 -138 -10 -231 0 -484 6 -172 9 -316 6 -319 -3 -3 -155 67 -338 157 -381 186 -499 236 -609 258 -72 14 -84 14 -146 -2 -87 -21 -188 -82 -248 -148 -62 -69 -106 -158 -221 -451 -53 -133 -150 -363 -216 -512 -188 -424 -192 -440 -207 -850 l-10 -250 74 -151 c72 -148 126 -224 159 -224 39 0 95 72 166 213 116 234 126 322 52 483 -67 147 -66 157 21 167 93 9 104 45 81 247 -32 275 21 490 182 737 65 102 150 206 179 222 27 15 248 -52 336 -102 35 -19 125 -85 199 -146 74 -61 175 -139 224 -174 49 -34 125 -89 169 -122 98 -73 133 -95 267 -169 95 -52 160 -99 160 -116 0 -3 -53 -11 -117 -18 -463 -47 -674 -123 -950 -342 -143 -114 -546 -510 -647 -637 -139 -173 -521 -743 -592 -883 -42 -82 -62 -201 -70 -420 -7 -170 4 -266 34 -288 50 -39 211 20 334 122 70 58 147 158 167 215 14 44 14 165 -1 319 -15 154 -7 167 51 88 46 -61 71 -70 96 -33 21 33 51 123 90 273 57 221 113 347 210 474 118 154 302 323 414 380 253 127 798 232 1256 242 l149 3 28 -67 c14 -37 75 -192 133 -345 59 -153 161 -411 227 -573 67 -162 201 -500 300 -750 173 -439 315 -786 361 -880 19 -40 32 -50 105 -86 164 -82 400 -146 541 -148 56 -1 96 3 98 9 2 6 -15 34 -37 64 -58 77 -145 220 -208 340 -41 80 -51 106 -40 112 7 4 49 3 93 -2 320 -34 699 -36 909 -4 197 30 350 102 482 228 41 38 76 68 78 66 9 -9 64 -156 71 -189 11 -52 54 -151 81 -187 29 -38 67 -44 84 -13 6 11 19 93 30 183 28 232 73 450 101 484 13 15 44 10 155 -24 104 -31 128 -29 132 14 7 74 -171 529 -398 1018 -112 240 -150 334 -150 367 0 20 3 20 63 14 34 -3 221 -11 415 -16 l353 -10 221 -138 c233 -145 334 -226 360 -289 9 -21 73 -180 141 -353 274 -691 431 -1036 519 -1135 26 -31 36 -35 78 -35 70 0 122 43 176 143 53 100 56 103 91 89 182 -72 428 -162 456 -167 77 -15 68 15 -46 152 -164 199 -237 297 -237 322 0 12 17 13 98 8 163 -11 280 22 307 86 7 18 20 66 29 109 20 95 33 131 46 123 19 -12 31 -90 40 -268 20 -392 7 -873 -30 -1077 -60 -334 -65 -375 -83 -619 l-4 -54 61 6 c36 3 99 19 153 41 114 44 187 55 373 56 278 1 357 25 470 140 115 117 181 261 182 394 0 91 -19 131 -101 214 -65 66 -95 116 -106 175 -9 47 2 61 68 83 97 31 111 60 83 173 -8 31 -17 82 -21 113 -5 45 -16 73 -54 130 -107 162 -137 261 -205 673 -52 311 -86 568 -86 644 0 89 8 109 122 292 37 59 80 134 97 168 17 33 37 61 44 61 6 0 30 -12 52 -25 48 -30 140 -34 219 -10 73 22 88 19 154 -30 84 -63 143 -87 216 -88 65 -1 108 16 231 88 33 19 103 48 155 65 99 31 140 52 140 74 0 17 -37 50 -85 75 -72 37 -135 43 -308 30 l-158 -12 -32 24 c-135 100 -179 127 -215 133 -34 5 -207 -17 -300 -39 -22 -5 -23 -5 -16 62 9 93 16 103 67 103 46 0 106 15 212 54 98 36 145 34 190 -5 20 -18 54 -62 75 -100 67 -114 154 -169 269 -169 25 0 77 -7 116 -15 38 -8 71 -15 73 -15 2 0 2 10 0 22 -5 34 -94 67 -179 68 -84 0 -112 20 -134 92 -21 72 -18 81 9 28 26 -49 62 -87 73 -76 9 9 -64 261 -94 321 -77 154 -168 195 -333 149 -50 -13 -104 -18 -235 -18 -245 -1 -288 15 -315 119 -7 28 -41 127 -76 220 -287 778 -515 1135 -916 1438 -166 125 -375 235 -677 357 l-154 62 -381 -5 c-385 -6 -468 -13 -591 -51 -27 -8 -51 -13 -54 -10 -3 3 -11 37 -18 75 -15 91 -70 206 -129 269 -26 27 -42 50 -35 50 6 0 68 -25 138 -54 196 -84 288 -108 413 -110 92 -1 111 2 153 23 68 33 152 113 172 164 17 42 42 77 55 77 4 0 10 -9 13 -19 7 -30 93 -78 182 -102 100 -28 299 -30 412 -5 151 33 238 82 299 167 38 53 63 64 159 74 83 9 190 41 253 77 110 62 188 170 180 249 l-3 34 -105 0 -105 0 -7 135 c-10 214 -58 334 -150 381 -125 64 -321 -21 -599 -258 -47 -40 -88 -73 -91 -73 -3 0 -9 21 -12 48 -27 191 -109 278 -276 290 -107 7 -119 -1 -438 -310 -258 -250 -420 -391 -484 -424 l-47 -24 -44 58 c-24 31 -62 86 -84 122 -51 84 -415 743 -440 795 -10 22 -40 74 -68 117 -27 42 -74 114 -103 160 -29 45 -86 121 -128 167 -42 46 -79 93 -83 104 -5 13 0 43 12 79 19 55 19 60 3 101 -9 24 -32 62 -50 83 -102 119 -181 284 -293 608 -135 392 -311 727 -459 871 -85 82 -189 153 -260 175 -30 9 -61 23 -68 31 -8 8 -46 93 -86 189 -114 279 -247 524 -404 743 -198 277 -358 438 -472 474 -30 9 -53 22 -51 27 2 6 53 26 113 44 137 42 223 77 265 108 18 13 38 24 45 24 6 0 24 -34 39 -77 33 -93 64 -143 107 -176 62 -46 133 -46 188 0 24 20 30 33 30 64 0 33 -8 48 -51 96 -46 50 -50 57 -33 63 22 9 194 22 634 50 300 20 598 42 1440 110 1312 106 1570 138 1648 205 23 20 27 31 26 71 -1 55 -20 76 -87 96 -61 19 -989 16 -1607 -5 -272 -9 -571 -19 -665 -22 -219 -7 -1323 -35 -1395 -35 l-55 0 52 48 c58 53 70 85 54 135 -15 44 -36 62 -86 76 -62 17 -91 13 -124 -15z m120 -44 c17 -10 18 -13 5 -38 -8 -15 -30 -43 -50 -61 -20 -20 -45 -59 -57 -90 -41 -108 -40 -334 1 -444 16 -44 34 -67 81 -108 48 -41 59 -57 57 -77 -9 -71 -97 -40 -140 48 -85 174 -95 549 -18 699 33 66 79 93 121 71z m-521 -144 c0 -26 -51 -179 -76 -228 -44 -88 -64 -69 -39 37 8 38 25 89 36 114 30 67 79 115 79 77z m170 -50 c0 -7 -10 -26 -22 -42 -33 -44 -121 -134 -132 -134 -15 0 2 99 23 134 12 18 31 38 43 44 34 16 88 15 88 -2z m3998 4 c27 -5 65 -15 83 -23 l34 -14 -40 -17 c-113 -49 -656 -110 -1665 -186 -223 -17 -542 -42 -710 -55 -168 -14 -444 -34 -615 -45 -170 -11 -383 -27 -473 -35 -217 -20 -268 -20 -276 1 -4 9 -4 19 -2 21 12 13 105 24 346 42 146 11 474 36 730 56 600 46 1392 111 1590 131 306 31 398 72 138 61 -84 -4 -461 -11 -838 -17 -377 -5 -946 -15 -1265 -22 -319 -7 -603 -12 -632 -13 -48 0 -73 8 -61 20 23 23 337 38 1278 61 360 9 882 22 1160 29 637 15 1152 18 1218 5z m-4330 -58 c4 -35 -33 -126 -63 -155 -35 -36 -41 19 -13 113 25 81 70 106 76 42z m442 2 c11 -28 12 -96 1 -134 -4 -16 -15 -26 -29 -28 -38 -6 -52 15 -52 73 0 43 5 60 26 84 31 38 42 39 54 5z m-594 -130 c-7 -28 -34 -56 -47 -49 -17 11 -9 48 19 94 l27 46 3 -34 c2 -19 1 -44 -2 -57z m2616 36 c-21 -9 -123 -17 -692 -55 -340 -23 -1017 -74 -1073 -81 l-48 -6 3 58 3 59 455 12 c662 18 704 18 1055 20 203 1 312 -2 297 -7z m-2736 -57 c-11 -69 17 -83 169 -83 106 0 116 -2 113 -17 -5 -29 -104 -61 -235 -76 -88 -10 -130 -20 -156 -35 -56 -35 -102 -28 -159 26 -71 66 -21 202 75 202 31 0 47 -18 47 -55 0 -34 38 -117 57 -123 7 -2 14 23 18 75 8 86 25 123 56 123 18 0 20 -4 15 -37z m560 8 c-8 -13 -36 -15 -36 -3 0 4 5 13 12 20 14 14 34 0 24 -17z m-26 -81 c0 -5 11 -10 25 -10 26 0 34 -15 13 -23 -7 -2 -37 -2 -65 1 -74 7 -70 -14 12 -74 36 -26 65 -51 65 -54 0 -19 -172 -90 -219 -90 -32 0 -91 43 -91 66 0 18 20 18 80 -2 44 -14 50 -14 80 1 19 10 42 14 56 11 13 -4 24 -2 24 2 0 19 -100 102 -122 102 -21 0 -20 -2 11 -34 47 -48 35 -61 -22 -24 l-47 31 -61 -27 c-70 -30 -69 -30 -69 -13 0 10 214 126 260 141 28 8 70 6 70 -4z m185 -40 c11 -17 -5 -32 -21 -19 -8 6 -14 15 -14 20 0 12 27 11 35 -1z m-57 -97 c-5 -25 -28 -28 -28 -4 0 12 6 21 16 21 9 0 14 -7 12 -17z m-456 -61 c72 -37 101 -72 60 -72 -38 0 -172 79 -172 102 0 17 41 7 112 -30z m-94 -92 l104 -50 -78 -85 c-43 -47 -86 -87 -95 -90 -15 -5 -145 18 -155 27 -4 5 60 199 77 231 14 26 34 21 147 -33z m278 -193 c137 -102 384 -392 528 -622 73 -116 156 -289 236 -488 l63 -158 -44 -45 c-109 -112 -379 -344 -401 -344 -3 0 -16 44 -28 98 -13 53 -34 135 -47 182 -49 169 -53 186 -53 233 0 58 11 81 61 128 32 29 39 43 39 73 0 47 -21 87 -61 119 -17 13 -43 46 -58 72 -31 56 -77 85 -137 85 -52 0 -87 -26 -119 -90 -28 -55 -39 -60 -147 -60 -70 0 -78 2 -78 19 0 36 52 355 63 390 11 33 16 37 67 47 77 16 89 22 106 55 28 56 29 109 0 163 -15 29 -26 65 -26 88 0 30 -7 46 -29 69 -47 46 -4 37 65 -14z m-132 -13 c22 -9 20 -29 -10 -79 -29 -50 -25 -65 16 -65 37 0 77 -18 85 -38 17 -45 -37 -76 -114 -66 -58 7 -73 -8 -94 -91 -31 -123 -83 -507 -72 -526 8 -12 178 -11 251 2 69 13 90 29 104 79 11 42 45 90 64 90 27 0 76 -78 76 -120 0 -22 28 -40 64 -40 40 0 56 -11 56 -37 0 -17 -9 -29 -32 -41 -48 -26 -68 -49 -68 -79 0 -31 -26 -63 -51 -63 -10 0 -39 18 -64 40 -54 47 -78 49 -259 25 -148 -20 -150 -22 -142 -145 7 -113 68 -425 96 -487 10 -23 25 -43 32 -43 31 0 88 -22 88 -34 0 -7 -18 -27 -39 -44 -33 -27 -41 -40 -46 -79 -16 -123 -46 -125 -74 -5 -66 282 -159 808 -145 821 5 6 86 21 180 35 166 24 244 45 244 64 0 18 -26 19 -218 10 -106 -6 -196 -8 -199 -4 -8 8 11 155 53 404 72 427 125 552 218 516z m-224 -84 c10 -7 -8 -10 -60 -10 -41 0 -82 5 -90 10 -10 7 8 10 60 10 41 0 82 -5 90 -10z m-50 -64 c34 -11 35 -13 32 -56 -1 -25 -10 -71 -19 -102 -13 -48 -19 -58 -37 -58 -27 0 -225 45 -232 53 -8 8 57 135 84 164 21 23 28 25 80 18 31 -4 72 -12 92 -19z m-207 -217 c20 -5 37 -14 37 -19 0 -11 -48 -3 -100 16 l-35 13 30 0 c17 1 47 -4 68 -10z m181 -39 c37 -14 32 -30 -9 -30 -37 0 -85 18 -85 32 0 11 63 10 94 -2z m-125 -45 c83 -15 127 -34 137 -60 8 -19 -14 -118 -30 -140 -13 -18 -15 -18 -64 3 -28 12 -113 34 -189 49 -76 14 -139 27 -141 29 -4 2 34 78 56 112 12 19 23 22 81 22 36 0 104 -7 150 -15z m-109 -206 c123 -24 200 -47 200 -60 0 -18 -26 -20 -62 -5 -19 8 -100 25 -179 36 -159 23 -179 27 -179 40 0 23 53 21 220 -11z m44 -93 c130 -27 171 -50 150 -84 -16 -24 -27 -19 -39 17 l-11 31 -18 -31 c-18 -30 -21 -31 -64 -25 -56 7 -92 30 -92 56 0 28 -17 25 -57 -11 -31 -27 -40 -30 -77 -24 -118 19 -135 33 -99 84 15 23 20 24 102 18 47 -4 140 -18 205 -31z m-264 -121 c58 -8 162 -18 232 -23 130 -9 145 -12 133 -31 -22 -37 -469 16 -483 57 -5 15 -9 15 118 -3z m10 -89 c69 -8 159 -18 200 -21 126 -11 149 -20 171 -68 10 -23 19 -57 19 -76 0 -32 -1 -33 -32 -28 -173 26 -214 28 -360 22 l-158 -7 0 102 c0 92 2 101 18 96 9 -3 73 -12 142 -20z m854 -106 c15 -5 42 -25 61 -44 20 -21 53 -40 81 -48 28 -8 55 -23 66 -38 10 -14 43 -115 74 -225 76 -274 75 -271 55 -289 -55 -48 -362 -186 -416 -186 -33 0 -32 15 5 70 56 85 48 142 -25 185 -65 38 -69 52 -111 343 -21 145 -25 195 -16 204 14 14 112 36 164 37 20 1 48 -3 62 -9z m-699 -125 c215 -25 291 -42 273 -60 -8 -9 -514 12 -550 22 -66 19 -13 53 82 53 36 0 124 -7 195 -15z m-149 -103 c6 -4 14 -34 18 -67 7 -63 29 -109 49 -102 8 2 12 31 12 84 0 45 3 85 8 89 13 13 35 -18 64 -91 44 -110 86 -79 48 36 -10 28 -15 53 -12 56 3 3 35 0 70 -6 35 -6 84 -11 108 -11 24 0 49 -4 56 -8 21 -14 34 -65 40 -165 l6 -98 -36 21 c-30 18 -62 23 -194 31 -87 5 -205 10 -263 12 l-105 2 -11 55 c-6 31 -14 79 -18 107 -6 51 -6 52 21 56 49 7 128 7 139 -1z m1826 -113 c211 -77 295 -167 457 -488 94 -185 114 -233 196 -456 35 -93 81 -212 104 -262 105 -238 121 -276 118 -280 -7 -6 -105 63 -173 123 -70 62 -115 129 -163 244 -39 93 -65 130 -81 114 -17 -17 11 -120 59 -219 64 -133 149 -233 238 -278 17 -9 60 -39 94 -67 43 -34 72 -51 89 -49 45 2 50 0 50 -32 0 -43 -26 -94 -56 -108 -14 -6 -48 -11 -77 -11 -124 0 -242 -55 -344 -158 l-71 -72 -169 12 c-92 6 -179 9 -193 5 -14 -3 -54 -28 -90 -54 l-64 -48 -140 3 c-135 2 -141 2 -200 -26 -34 -16 -90 -56 -126 -89 -89 -81 -108 -93 -152 -93 -74 0 -136 85 -199 272 l-31 92 21 17 c11 9 78 36 148 59 119 39 211 77 513 209 63 28 125 51 136 51 29 0 150 -114 231 -217 38 -49 74 -85 89 -89 40 -10 73 4 81 34 15 53 4 281 -26 517 -16 132 -33 272 -36 310 -17 188 -53 339 -97 415 -55 93 -166 171 -263 185 -90 14 -221 -66 -441 -269 -211 -194 -369 -306 -431 -306 -30 0 -33 3 -33 30 0 62 -77 243 -128 302 -44 49 -41 63 11 65 56 2 198 52 332 118 182 88 376 224 605 424 63 55 118 100 122 101 4 0 44 -14 90 -31z m-1427 -183 c78 -18 95 -25 95 -42 0 -18 -11 -17 -80 1 -30 8 -111 17 -180 20 -232 10 -310 17 -310 25 0 15 52 18 235 14 104 -2 205 -9 240 -18z m1 -90 c69 -21 86 -43 96 -123 4 -36 15 -76 23 -89 14 -22 14 -24 -3 -24 -10 0 -33 13 -52 29 -29 24 -35 36 -40 82 -6 63 -30 75 -41 21 -9 -42 -10 -43 -47 -36 -31 6 -32 9 -32 55 0 56 -16 65 -33 19 -12 -30 -23 -35 -65 -23 -17 4 -22 11 -19 24 7 26 -13 36 -28 15 -17 -22 -68 -36 -135 -36 -68 0 -81 8 -83 51 -3 55 19 61 228 55 124 -3 196 -9 231 -20z m-244 -167 c130 -27 297 -132 389 -244 129 -156 176 -341 166 -655 -3 -91 -13 -208 -22 -260 -22 -122 -68 -304 -89 -355 -15 -34 -19 -37 -27 -23 -12 21 1 138 42 393 39 235 45 439 16 493 -22 41 -55 56 -100 48 -48 -9 -69 -36 -79 -103 -5 -32 -17 -66 -26 -76 -34 -37 -162 -91 -193 -82 -24 8 -42 76 -34 129 13 89 29 144 66 227 63 141 52 172 -86 240 -72 36 -95 42 -149 43 -51 1 -70 -3 -93 -20 -33 -25 -40 -62 -19 -101 l14 -28 7 30 c24 99 125 82 156 -26 16 -58 16 -279 -1 -349 -24 -101 -61 -150 -115 -150 -34 0 -106 42 -144 83 l-23 26 22 36 22 35 -26 44 c-59 102 -150 80 -186 -44 -30 -100 -37 -268 -10 -219 5 9 19 60 31 115 24 114 41 152 72 163 32 12 47 3 47 -29 0 -19 -6 -29 -20 -33 -46 -12 -8 -99 69 -159 64 -49 138 -88 170 -88 18 0 40 16 76 55 29 30 55 55 58 55 4 0 13 -15 21 -34 19 -46 47 -60 105 -51 101 15 203 84 252 170 17 30 36 59 44 65 52 43 44 -219 -17 -500 -32 -149 -38 -142 -36 36 3 180 -1 194 -58 194 -53 0 -166 -46 -191 -77 -28 -34 -46 -119 -74 -333 -26 -205 -52 -332 -79 -375 -11 -18 -20 -39 -20 -47 0 -8 -10 -23 -21 -34 l-22 -19 7 30 c15 61 26 206 33 425 7 241 2 279 -40 318 -35 32 -282 143 -301 136 -30 -11 -37 -53 -43 -236 -6 -164 -12 -212 -28 -196 -4 3 -10 47 -15 97 -8 90 -14 111 -30 111 -17 0 -19 -51 -5 -132 32 -181 8 -134 -56 109 -70 269 -97 550 -68 709 29 157 161 313 344 407 119 61 214 77 317 56z m1465 -501 c-4 -222 -10 -451 -13 -509 l-7 -106 -111 -47 c-121 -50 -153 -57 -141 -28 4 9 11 217 15 462 6 325 12 456 22 485 10 29 25 46 59 68 45 27 155 76 173 77 6 0 7 -162 3 -402z m114 375 c8 -20 8 -135 0 -403 -11 -357 -8 -491 10 -473 22 22 49 353 49 604 0 151 8 229 23 229 13 0 87 -75 87 -89 0 -12 -7 -15 -52 -25 -16 -4 -28 -10 -28 -15 0 -9 42 -28 75 -33 14 -2 20 -11 20 -28 0 -19 -9 -30 -39 -44 l-39 -19 50 -22 c28 -13 54 -28 58 -35 10 -17 -15 -31 -43 -25 -12 3 -32 0 -43 -6 -28 -14 -12 -30 44 -44 56 -13 71 -46 93 -200 20 -148 14 -229 -26 -358 -28 -90 -32 -97 -49 -85 -28 20 -103 89 -99 92 1 1 22 8 45 15 51 14 73 45 49 69 -14 14 -26 13 -131 -7 -64 -13 -119 -21 -121 -18 -3 3 0 146 5 318 6 173 12 379 14 459 1 80 6 151 10 158 13 19 27 14 38 -15z m-1513 -215 c7 -7 12 -23 12 -37 0 -27 -34 -91 -48 -91 -9 0 -33 120 -26 132 8 12 48 10 62 -4z m1086 -114 c9 -129 -7 -745 -20 -779 -7 -17 -10 -13 -16 20 -8 49 -10 847 -2 870 16 41 30 2 38 -111z m-100 -11 c13 -118 16 -334 7 -522 -12 -220 -20 -270 -52 -300 -26 -24 -147 -70 -207 -78 -44 -6 -45 -6 -37 18 18 57 16 275 -4 452 -25 208 -27 280 -8 275 33 -11 62 -179 86 -505 12 -152 21 -197 36 -172 27 43 15 304 -27 576 l-21 142 24 21 c53 45 181 140 189 140 4 0 11 -21 14 -47z m-370 -205 c28 -46 27 -122 -3 -104 -22 14 -41 126 -21 126 5 0 16 -10 24 -22z m20 -192 c8 -32 -9 -76 -29 -76 -24 0 -29 29 -12 66 20 40 33 43 41 10z m-1042 -152 c13 -29 -7 -239 -39 -399 l-18 -90 -3 55 c-4 65 16 438 24 451 10 16 24 9 36 -17z m619 -192 c-18 -221 -34 -222 -29 -2 3 177 12 226 32 181 7 -15 6 -72 -3 -179z m422 176 c7 -20 -12 -48 -33 -48 -25 0 -33 15 -20 40 12 22 46 27 53 8z m-933 -107 c0 -67 -37 -342 -51 -376 -11 -29 -11 185 1 329 6 74 15 123 22 127 20 12 28 -11 28 -80z m87 -97 c-6 -121 -20 -172 -32 -121 -9 36 -1 238 10 256 18 31 28 -24 22 -135z m2028 -93 c-4 -16 -9 -21 -16 -14 -14 14 -13 133 3 201 l13 57 3 -110 c2 -60 0 -121 -3 -134z m-1157 197 c-7 -19 -87 -61 -104 -54 -20 8 -10 23 30 47 35 22 80 26 74 7z m-1718 -8 c35 -5 111 -22 167 -37 l103 -27 39 -126 c196 -621 268 -878 345 -1236 57 -263 76 -324 99 -324 36 0 183 198 330 448 76 127 205 382 232 457 24 67 28 69 63 51 28 -15 118 -114 129 -143 6 -15 -127 -255 -221 -398 -92 -139 -154 -217 -264 -329 -217 -221 -441 -350 -783 -452 l-124 -36 -50 28 c-27 15 -97 59 -155 97 -58 38 -127 81 -155 95 -45 23 -47 27 -25 30 13 2 65 -1 115 -7 169 -21 393 24 584 117 92 45 171 117 171 155 0 15 -2 27 -5 27 -2 0 -28 -15 -57 -34 -75 -48 -225 -121 -295 -145 -173 -58 -586 -37 -627 32 -9 16 -5 23 24 45 74 56 147 139 183 209 44 84 82 222 72 261 l-7 27 -22 -26 c-12 -14 -42 -72 -65 -127 -80 -188 -155 -266 -258 -267 -33 0 -58 5 -60 11 -2 6 21 47 50 91 121 175 142 243 142 453 0 176 -16 273 -43 268 -15 -3 -17 -21 -18 -148 -1 -142 -16 -260 -50 -378 -16 -59 -34 -61 -34 -4 0 20 -12 69 -26 107 -60 168 -65 190 -73 323 -8 157 -20 179 -53 106 -20 -42 -23 -65 -22 -154 1 -95 5 -114 38 -205 45 -121 57 -216 32 -262 -9 -18 -42 -53 -73 -80 -97 -81 -204 -187 -219 -215 -8 -15 -14 -36 -14 -47 0 -26 -21 -37 -100 -51 -85 -15 -197 -51 -353 -112 -71 -28 -130 -48 -133 -45 -9 9 -113 303 -148 421 -70 230 -101 458 -94 698 4 148 16 177 84 191 135 29 175 40 235 68 79 36 103 59 95 87 -4 11 -29 45 -56 76 -28 32 -50 61 -50 65 0 13 227 158 365 235 159 88 259 126 359 135 116 12 599 12 676 1z m1167 -123 c-2 -23 -3 -1 -3 48 0 50 1 68 3 42 2 -26 2 -67 0 -90z m543 24 c12 -24 13 -101 1 -134 -8 -20 -19 -25 -63 -31 -110 -14 -103 -15 -102 26 2 49 43 130 74 145 38 19 78 16 90 -6z m-597 -183 c22 -160 40 -190 73 -126 l17 32 16 -44 c27 -73 45 -61 68 43 4 21 13 39 18 39 20 1 59 -115 59 -177 1 -74 -26 -145 -166 -434 -107 -222 -195 -386 -267 -496 -37 -56 -47 -66 -49 -48 -4 25 40 117 72 151 20 23 21 33 20 214 -1 104 2 186 5 181 4 -4 16 -29 25 -55 10 -27 21 -48 25 -48 10 0 21 210 21 405 0 83 5 215 9 295 15 238 29 256 54 68z m-2834 8 c119 -44 183 -83 289 -175 98 -85 101 -77 -45 -112 -101 -24 -113 -20 -201 76 -67 74 -164 245 -138 245 2 0 45 -15 95 -34z m5251 -17 c119 -19 235 -92 267 -166 47 -113 -21 -389 -168 -680 -75 -148 -156 -283 -170 -283 -4 0 -15 26 -24 58 -9 31 -59 197 -111 367 -111 363 -115 382 -85 423 26 38 27 62 0 96 -31 39 -57 35 -61 -11 -4 -50 -27 -64 -198 -122 -153 -52 -201 -63 -207 -45 -4 11 33 33 245 147 73 40 161 93 195 119 142 105 186 118 317 97z m-1908 -84 c9 -33 2 -192 -13 -293 -13 -85 -46 -172 -66 -172 -27 0 -163 111 -163 133 0 11 107 293 122 320 11 22 65 48 92 44 12 -1 23 -13 28 -32z m-3545 -5 c76 -26 104 -50 178 -148 96 -129 88 -139 -52 -67 -132 68 -279 202 -258 235 9 14 56 7 132 -20z m2483 -46 c0 -39 15 -74 31 -74 5 0 16 15 24 34 26 62 55 56 55 -12 0 -95 59 -94 90 3 12 36 14 37 21 17 6 -16 17 -22 39 -22 28 0 30 -2 30 -37 -1 -46 -38 -239 -81 -421 -18 -73 -29 -135 -26 -139 11 -11 46 28 80 89 53 96 53 80 4 -132 -39 -167 -40 -178 -21 -208 33 -49 30 -268 -3 -279 -7 -3 -14 6 -17 19 -40 212 -156 699 -225 951 -43 156 -49 205 -29 236 17 27 28 17 28 -25z m2378 -49 c11 -11 -24 -36 -86 -59 -158 -61 -164 -76 -94 -224 27 -59 71 -166 97 -238 l47 -132 -127 -206 c-69 -113 -138 -215 -153 -226 -19 -16 -35 -20 -57 -16 -61 12 -171 76 -243 141 -146 134 -222 279 -249 471 -17 129 -13 151 34 181 15 9 65 45 110 79 111 84 137 92 198 59 27 -14 60 -25 74 -25 44 1 103 34 189 108 45 40 83 72 85 72 1 0 20 7 42 15 36 14 120 14 133 0z m-1268 -252 c-63 -266 -261 -635 -468 -874 -117 -135 -287 -301 -332 -324 -19 -10 -51 -30 -71 -46 -113 -89 -421 -215 -604 -247 -282 -51 -519 -36 -895 53 -172 41 -230 62 -230 81 0 18 14 18 68 -1 60 -21 290 -71 432 -95 378 -61 707 -18 1025 135 158 77 253 144 383 269 344 333 656 872 699 1208 l8 63 3 -67 c2 -43 -5 -99 -18 -155z m822 149 c9 -9 -10 -12 -79 -12 -104 0 -155 8 -146 22 8 14 210 5 225 -10z m1435 -54 c29 -37 17 -163 -32 -357 -84 -333 -278 -694 -427 -798 -36 -24 -39 -25 -63 -9 -50 33 -20 116 106 286 190 256 287 462 339 715 12 55 25 117 31 138 10 37 28 47 46 25z m-780 -13 c14 -10 26 -34 33 -68 12 -59 7 -83 -20 -97 -34 -18 -212 -80 -230 -80 -18 0 -47 61 -66 134 -7 29 -1 33 140 87 116 44 115 44 143 24z m-1346 -74 c35 -35 67 -56 109 -72 33 -12 62 -25 64 -28 1 -3 0 -37 -4 -76 -12 -120 7 -355 39 -490 16 -66 39 -176 51 -245 22 -130 41 -204 60 -239 12 -24 45 -28 54 -6 10 28 29 17 21 -12 -15 -60 -62 -82 -89 -40 -8 12 -35 76 -61 142 -65 165 -186 415 -299 614 l-95 167 30 99 c16 55 37 130 45 168 9 37 18 67 21 67 3 0 28 -22 54 -49z m2292 -198 c113 -221 184 -411 232 -618 30 -128 43 -310 26 -370 -20 -74 -137 -192 -266 -268 -91 -53 -175 -136 -175 -172 0 -91 114 -177 253 -192 72 -7 87 -26 94 -116 7 -79 -3 -96 -104 -178 -71 -59 -73 -61 -73 -106 0 -39 -30 -213 -46 -267 -5 -15 -12 -10 -39 28 -58 83 -56 76 -254 776 -33 118 -87 300 -120 403 l-61 189 55 65 c163 192 244 376 343 780 26 106 50 193 53 193 3 0 40 -66 82 -147z m-873 58 c0 -18 -227 -107 -253 -98 -21 7 54 46 148 77 100 33 105 34 105 21z m38 -141 c32 -64 27 -92 -23 -108 -110 -36 -207 -61 -220 -56 -18 7 -57 108 -49 129 3 8 38 24 78 35 39 12 89 27 111 35 61 21 77 16 103 -35z m-2346 -205 c-6 -30 -13 -40 -27 -40 -17 0 -20 7 -19 51 1 28 12 87 25 130 l24 79 3 -90 c1 -50 -1 -108 -6 -130z m788 -5 c95 -164 134 -243 248 -495 136 -303 136 -303 118 -330 -22 -34 -102 -98 -306 -247 -296 -217 -427 -343 -494 -475 -32 -65 -55 -197 -63 -374 -7 -158 4 -233 52 -359 47 -123 80 -186 324 -613 251 -440 313 -558 340 -656 25 -89 29 -138 41 -469 12 -303 7 -345 -35 -356 -34 -9 -45 -34 -53 -122 l-7 -76 -246 329 c-259 345 -408 557 -556 788 -108 170 -264 427 -294 486 -12 24 -89 157 -172 294 -83 138 -197 333 -255 435 -57 102 -134 232 -170 290 -115 183 -322 636 -339 742 l-6 40 99 -99 c175 -174 482 -436 557 -475 23 -11 76 -42 118 -69 150 -94 421 -219 474 -219 63 0 11 42 -165 135 -162 85 -403 242 -555 360 -209 163 -441 382 -433 407 17 49 231 30 473 -43 201 -61 265 -69 540 -69 206 0 253 3 318 19 97 25 280 97 309 121 l23 19 -40 1 c-22 0 -92 -16 -155 -35 -62 -20 -146 -41 -185 -48 -104 -18 -426 -14 -565 7 -109 16 -297 60 -309 72 -11 11 32 33 113 60 406 133 800 482 1051 930 118 212 127 226 130 222 2 -2 36 -59 75 -128z m4850 101 c34 -24 67 -75 83 -125 8 -27 12 -111 12 -249 l0 -209 55 -49 c45 -40 52 -50 40 -59 -58 -38 -174 40 -234 158 -50 99 -86 274 -86 420 0 86 2 95 26 118 28 29 59 27 104 -5z m-4425 -177 c22 -32 84 -104 140 -159 197 -198 373 -252 776 -239 202 7 207 6 228 -15 28 -28 27 -53 -5 -91 -34 -39 -75 -56 -170 -69 -259 -37 -535 25 -727 163 -79 56 -192 176 -236 249 -55 93 -83 181 -87 277 l-4 85 23 -71 c13 -39 41 -97 62 -130z m3625 161 c39 -36 50 -106 64 -421 12 -266 16 -305 34 -340 26 -51 86 -119 134 -154 36 -26 37 -28 15 -34 -34 -9 -144 -7 -222 4 -124 18 -243 89 -266 157 -22 69 3 511 40 696 15 77 18 83 51 100 43 22 121 18 150 -8z m-2470 -39 c-22 -21 -184 -86 -215 -86 -34 0 -23 17 24 38 64 27 165 61 186 61 17 1 17 -1 5 -13z m3039 -208 c61 -324 64 -351 51 -427 -22 -130 -92 -200 -201 -201 -89 0 -190 72 -218 158 -7 20 -15 116 -18 214 l-6 176 119 88 c151 112 226 164 234 164 4 0 21 -78 39 -172z m-3379 139 c0 -36 -90 -254 -137 -331 -31 -51 -53 -67 -83 -59 -15 4 -20 11 -17 24 3 9 51 98 108 198 93 161 129 208 129 168z m2470 -380 c-17 -389 -37 -462 -147 -535 -51 -33 -64 -37 -134 -41 -60 -2 -96 2 -150 19 -71 21 -265 107 -439 195 l-90 45 -1 138 c0 75 -4 163 -8 195 -4 31 -4 57 -1 57 4 0 38 -46 75 -102 127 -192 269 -344 364 -389 34 -17 65 -23 118 -23 81 0 113 15 147 73 29 49 12 58 -73 38 -38 -9 -86 -17 -106 -17 -41 0 -127 42 -185 90 l-35 28 25 27 c14 15 61 54 105 87 44 34 163 145 265 248 102 104 205 204 230 223 l45 34 3 -71 c2 -39 -2 -183 -8 -319z m-2049 252 c35 -122 33 -145 -19 -214 -34 -45 -42 -50 -75 -49 -62 2 -96 23 -122 73 -21 43 -75 205 -75 227 0 12 117 61 190 80 35 9 48 9 58 0 7 -7 26 -59 43 -117z m-321 -121 c23 -60 40 -114 37 -121 -7 -19 -237 -40 -237 -22 0 3 15 36 34 73 30 60 70 152 90 207 7 19 8 19 20 -5 8 -14 32 -73 56 -132z m-865 -153 c16 -28 47 -60 81 -82 30 -20 54 -40 54 -45 0 -6 -16 -26 -36 -46 -45 -45 -53 -38 -99 91 -48 133 -48 163 0 82z m4725 -4 c0 -28 -36 -68 -67 -74 -45 -8 -75 8 -71 40 4 34 38 53 96 53 34 0 42 -3 42 -19z m-7341 -252 c46 -68 108 -236 93 -251 -13 -13 -233 33 -299 62 -40 18 -44 24 -58 85 -3 17 -29 70 -57 119 l-52 90 75 68 74 68 93 -93 c51 -50 110 -117 131 -148z m6951 86 c7 -9 10 -18 7 -21 -10 -11 -37 5 -37 21 0 19 14 19 30 0z m-4053 -50 c111 -57 308 -87 550 -84 90 1 165 0 168 -2 2 -3 74 -207 160 -455 l156 -449 -58 -54 c-32 -30 -93 -80 -135 -111 -162 -121 -258 -160 -397 -160 -150 0 -159 18 -38 80 138 72 191 113 231 179 80 130 166 336 166 393 0 49 -22 28 -71 -70 -81 -159 -230 -340 -343 -414 -58 -37 -132 -65 -144 -54 -3 4 8 21 26 39 81 83 151 352 169 646 5 86 4 103 -8 99 -17 -6 -27 -41 -75 -251 -58 -256 -101 -369 -156 -410 l-27 -20 -41 28 c-23 16 -70 63 -105 105 -35 42 -106 117 -157 166 -145 138 -270 193 -438 194 -95 0 -152 10 -147 24 2 6 30 26 63 44 151 85 324 242 427 386 83 116 137 176 160 176 8 0 37 -11 64 -25z m981 -1 c49 -6 67 -12 77 -28 22 -35 546 -1848 645 -2231 43 -168 46 -201 18 -219 -48 -29 -151 149 -254 439 -276 780 -645 1887 -651 1953 -5 55 -4 60 23 81 20 15 37 21 54 17 14 -3 53 -9 88 -12z m-4271 -56 c21 -19 53 -95 53 -125 0 -16 -38 -17 -77 -2 -15 5 -58 28 -95 51 -76 45 -96 45 -147 2 -41 -34 -41 -74 -1 -134 23 -35 30 -56 30 -96 0 -96 -57 -224 -100 -224 -59 0 -217 341 -179 386 34 41 245 132 364 158 80 17 121 12 152 -16z m642 -131 c29 -18 72 -48 95 -68 l41 -37 -57 -7 c-47 -6 -61 -4 -81 11 -33 25 -87 104 -87 128 0 22 13 18 89 -27z m-809 18 c10 -12 10 -18 0 -30 -18 -22 -48 -18 -55 6 -11 35 31 53 55 24z m5518 -145 c67 -113 105 -216 110 -302 l5 -78 -70 -72 c-38 -40 -91 -100 -118 -133 -87 -107 -148 -165 -172 -165 -51 0 -38 44 33 122 24 25 46 59 50 74 11 42 -21 245 -40 259 -9 7 -58 15 -109 19 -148 10 -207 34 -207 84 0 37 34 68 145 130 50 28 135 80 190 116 l100 65 22 -27 c12 -15 39 -56 61 -92z m-5357 -29 c19 -24 14 -70 -9 -79 -19 -7 -82 62 -82 91 0 17 5 19 38 14 20 -4 44 -15 53 -26z m2766 -326 c187 -35 311 -133 528 -415 66 -85 143 -178 172 -207 69 -68 166 -114 313 -148 144 -33 180 -44 180 -56 0 -5 -11 -9 -24 -9 -14 0 -76 -19 -138 -41 -316 -115 -370 -131 -454 -137 -71 -4 -88 -2 -127 17 -55 27 -146 121 -258 268 -106 138 -211 240 -323 314 -139 92 -175 102 -328 96 -71 -3 -128 -2 -128 2 0 19 110 121 156 144 98 49 239 59 343 24 70 -25 150 -78 226 -152 120 -116 173 -216 214 -407 36 -169 87 -268 135 -268 23 0 20 18 -13 92 -16 35 -48 127 -71 204 -92 307 -159 429 -289 525 -102 75 -163 94 -301 94 -63 0 -135 -4 -160 -8 l-45 -8 25 21 c81 67 204 86 367 55z m3803 -10 c289 -53 577 -193 871 -422 214 -167 309 -270 452 -488 144 -220 231 -411 359 -785 49 -146 99 -281 109 -302 30 -58 25 -72 -32 -98 -79 -37 -138 -115 -141 -185 -2 -50 11 -55 41 -15 47 63 116 126 162 148 42 20 109 30 109 16 0 -3 -25 -36 -55 -72 -31 -37 -65 -92 -77 -122 -26 -67 -31 -165 -8 -165 15 0 20 9 81 140 37 80 132 185 167 185 22 0 30 -24 12 -35 -33 -20 -83 -187 -105 -351 -32 -245 -37 -271 -56 -343 -30 -112 -88 -213 -194 -335 -121 -141 -166 -223 -229 -409 -75 -221 -164 -374 -255 -435 -44 -30 -192 -92 -218 -92 -7 0 -13 6 -13 14 0 42 -178 234 -815 876 -605 610 -873 910 -1134 1275 -150 208 -508 780 -546 872 -31 73 -12 55 74 -71 88 -130 156 -201 218 -228 68 -30 135 -84 323 -260 216 -203 476 -469 729 -748 255 -280 686 -712 851 -852 132 -112 359 -291 391 -309 36 -19 21 29 -23 73 -37 37 -294 253 -428 359 -44 34 -478 484 -752 779 -187 201 -355 394 -374 431 -21 42 -14 149 15 229 11 30 27 75 37 100 9 25 24 87 33 139 l17 94 89 -76 c124 -104 494 -480 596 -606 46 -57 108 -133 137 -168 28 -35 52 -73 52 -84 0 -10 -2 -19 -4 -19 -2 0 -52 18 -112 40 -302 112 -514 170 -514 140 0 -15 65 -44 215 -95 243 -82 421 -170 563 -277 126 -96 181 -124 196 -100 10 17 -31 77 -111 165 -47 51 -139 159 -206 242 -370 454 -595 687 -838 865 -52 38 -105 75 -119 82 -14 7 -69 41 -122 76 -131 85 -301 165 -434 203 -60 17 -112 34 -116 38 -4 3 4 29 17 55 31 61 33 133 4 195 -37 83 -186 245 -241 263 -25 9 9 55 139 188 133 138 179 175 251 203 53 21 198 54 317 72 130 20 518 14 645 -10z m-2174 -520 l48 -144 -23 -25 c-13 -14 -60 -44 -104 -67 -113 -59 -176 -63 -309 -20 -54 18 -112 38 -129 45 l-32 13 108 52 c131 62 207 116 305 215 41 42 78 76 82 76 3 0 28 -65 54 -145z m-2036 94 c0 -34 24 -40 40 -9 13 23 38 26 66 6 18 -14 14 -17 -56 -50 -82 -39 -176 -66 -227 -66 -26 0 -33 4 -33 20 0 11 12 27 26 36 14 10 34 34 45 56 26 51 49 51 49 -2 0 -28 4 -40 14 -40 15 0 26 21 26 50 0 20 29 42 42 34 5 -3 8 -18 8 -35z m2815 -74 c33 -23 82 -66 108 -94 47 -50 95 -136 83 -149 -4 -3 -42 6 -85 21 -71 24 -89 26 -173 21 -118 -7 -142 3 -146 63 -3 39 24 113 46 127 5 3 20 -17 33 -45 34 -74 99 -122 99 -74 0 8 -20 53 -45 99 -25 47 -45 90 -45 96 0 14 51 -13 125 -65z m-2607 12 c4 -21 -60 -54 -199 -101 -109 -37 -213 -58 -194 -38 6 6 77 35 158 66 81 30 162 64 180 75 36 22 51 22 55 -2z m-1644 -294 c208 -526 463 -1088 701 -1544 443 -849 749 -1385 899 -1572 27 -34 29 -41 19 -65 -7 -15 -33 -79 -59 -142 -25 -63 -50 -119 -54 -123 -8 -9 -243 454 -855 1677 -270 541 -343 674 -315 577 28 -97 174 -406 497 -1051 200 -398 407 -816 460 -930 256 -549 335 -715 459 -960 73 -146 175 -334 225 -418 50 -84 89 -156 85 -159 -10 -10 -110 22 -296 95 l-174 69 -86 199 c-161 372 -555 1359 -770 1929 -120 319 -159 420 -340 885 -89 228 -222 625 -290 865 -49 174 -222 863 -234 935 -6 32 -4 30 23 -20 16 -30 63 -141 105 -247z m1736 228 c5 -11 10 -32 10 -48 0 -42 13 -55 51 -51 52 5 43 -20 -20 -58 -74 -45 -235 -107 -374 -146 -116 -32 -118 -32 -136 -12 -21 21 -51 111 -44 132 3 7 18 19 34 27 31 16 376 135 391 135 5 0 7 -13 3 -29 -8 -38 18 -91 45 -91 26 0 26 34 0 83 -28 52 -26 77 5 77 14 0 29 -8 35 -19z m-1881 -446 c17 -99 44 -330 61 -512 31 -341 49 -475 75 -552 17 -51 19 -71 6 -71 -21 0 -53 123 -96 367 -69 399 -90 587 -99 898 -5 163 -5 167 9 110 7 -33 28 -141 44 -240z m2059 263 c-12 -36 -149 -102 -386 -184 -149 -53 -205 -64 -217 -45 -8 14 19 26 182 82 81 28 194 72 252 98 58 27 113 51 121 54 28 10 52 7 48 -5z m1662 -70 c36 -139 235 -684 309 -847 27 -58 46 -109 44 -113 -15 -28 -1237 21 -1318 52 -32 12 -49 48 -84 178 -46 167 -100 291 -168 384 l-34 47 26 7 c14 3 67 5 118 2 111 -5 131 -14 287 -144 122 -101 290 -222 375 -270 89 -49 175 -66 347 -68 168 -1 182 4 156 56 -33 70 -228 332 -407 549 -31 38 -18 54 51 62 64 8 158 53 224 107 27 22 52 39 56 40 4 0 12 -19 18 -42z m-1528 -92 c48 -51 102 -100 121 -109 58 -28 74 -67 27 -67 -11 0 -72 -23 -137 -51 -161 -71 -234 -95 -403 -134 -131 -30 -147 -32 -167 -19 -27 17 -30 52 -9 93 8 15 12 39 9 52 -13 55 -66 79 -82 37 -8 -22 -8 -22 -25 4 -10 15 -16 37 -14 50 3 20 15 26 108 49 117 30 205 63 360 137 58 28 110 51 115 51 6 1 50 -41 97 -93z m2346 57 c12 -13 22 -33 22 -43 0 -11 -23 -64 -52 -117 -28 -54 -57 -120 -63 -148 -14 -60 -36 -69 -53 -23 -16 47 -147 245 -189 290 -44 45 -37 60 25 53 26 -3 88 0 137 8 108 17 143 13 173 -20z m-1296 -70 c24 -29 29 -52 37 -174 6 -92 13 -127 34 -171 31 -70 93 -132 160 -164 92 -43 117 -27 43 28 -25 18 -56 53 -70 78 -27 50 -66 180 -66 220 1 25 1 25 31 -10 17 -19 99 -125 182 -235 l151 -200 -32 -3 c-44 -4 -235 35 -304 63 -73 30 -200 114 -303 200 -145 121 -246 218 -238 226 14 14 173 99 243 130 75 33 111 36 132 12z m-4247 -68 c54 -11 157 -57 448 -202 208 -103 392 -199 408 -213 27 -23 33 -40 63 -180 19 -85 50 -218 70 -294 20 -77 36 -143 36 -148 0 -31 -142 68 -458 319 -373 296 -388 305 -627 367 -119 31 -120 30 -228 -84 -125 -132 -254 -343 -306 -498 -18 -54 -21 -87 -22 -269 0 -198 -10 -357 -22 -370 -15 -14 -78 41 -99 88 -19 41 -34 58 -39 47 -1 -2 -5 -82 -9 -178 -7 -156 -11 -188 -42 -297 -19 -67 -47 -145 -61 -173 -27 -51 -97 -149 -108 -150 -3 0 -17 36 -32 80 -31 90 -35 169 -12 242 8 27 21 110 30 185 32 284 35 293 198 653 40 91 111 255 156 365 123 298 197 464 239 535 47 79 112 152 154 173 42 21 168 22 263 2z m5859 -114 c93 -31 147 -59 154 -79 2 -6 -5 -12 -15 -12 -42 0 -95 -23 -168 -73 -115 -77 -136 -87 -185 -87 -63 0 -103 27 -119 80 -22 73 3 143 76 221 l24 26 74 -23 c41 -13 112 -37 159 -53z m-2464 -21 c0 -47 -316 -183 -583 -251 -118 -30 -137 -30 -137 -3 0 19 26 29 149 54 136 28 244 67 421 151 80 38 146 69 148 69 1 0 2 -9 2 -20z m1841 -162 c84 -166 209 -457 209 -485 0 -20 -74 -17 -92 5 -18 20 -35 70 -78 237 -18 66 -47 169 -66 228 -19 60 -34 111 -34 113 0 17 17 -10 61 -98z m-1777 51 c31 -37 33 -64 6 -79 -25 -14 -25 -36 1 -79 l20 -33 24 22 c23 22 23 22 34 2 6 -12 11 -27 11 -35 0 -55 -263 -187 -577 -291 -62 -21 -117 -35 -123 -31 -17 10 -11 54 12 94 19 34 20 41 8 70 -9 24 -18 31 -34 29 -17 -2 -21 -10 -21 -43 0 -49 -23 -55 -38 -10 -5 17 -28 56 -50 87 -33 48 -38 60 -27 73 7 8 21 15 31 15 34 0 245 58 344 96 55 20 152 61 215 90 63 30 120 54 127 54 6 0 23 -14 37 -31z m-1916 -159 c400 -694 704 -1131 1206 -1734 l213 -257 -4 -47 c-11 -131 -25 -210 -47 -272 -26 -76 -92 -200 -106 -200 -28 0 -340 565 -624 1130 -361 718 -756 1532 -756 1557 0 19 36 -35 118 -177z m4656 93 c96 -68 110 -161 47 -302 -47 -105 -71 -174 -71 -206 0 -13 -4 -27 -10 -30 -10 -6 -96 72 -282 254 -105 103 -129 141 -89 141 11 0 49 20 85 45 214 146 198 137 240 132 22 -3 58 -18 80 -34z m-4963 -464 c44 -128 118 -344 164 -479 46 -135 100 -283 119 -330 24 -59 31 -87 23 -91 -7 -4 -88 -9 -182 -12 -248 -9 -614 -51 -865 -98 -91 -18 -115 -27 -180 -68 -41 -27 -104 -65 -139 -86 -178 -106 -398 -298 -477 -417 -98 -147 -194 -355 -194 -421 0 -17 -5 -39 -10 -47 -9 -13 -12 -12 -25 4 -8 11 -15 34 -16 50 -1 17 -4 42 -8 55 -6 22 -7 22 -24 -13 -27 -58 -30 -106 -12 -194 26 -130 16 -142 -34 -39 -23 48 -47 87 -52 87 -14 0 -67 -77 -80 -117 -7 -23 -9 -62 -5 -109 8 -88 -5 -127 -59 -171 -47 -39 -246 -143 -273 -143 -33 0 -47 49 -32 112 22 91 67 177 194 368 68 102 171 257 229 345 126 192 240 336 379 481 192 199 484 442 609 505 33 16 70 41 82 55 31 36 139 89 276 135 118 39 227 57 551 89 63 6 118 14 122 18 3 4 -11 36 -33 72 -68 111 -101 249 -124 508 -16 184 -17 197 -10 191 2 -3 41 -111 86 -240z m2314 175 c-97 -77 -525 -254 -615 -254 -69 0 -32 40 60 66 92 26 188 64 334 132 166 77 239 103 245 89 2 -6 -9 -21 -24 -33z m64 -118 c16 -85 14 -163 -5 -196 -22 -36 -94 -79 -224 -133 -128 -53 -218 -79 -282 -81 -41 -1 -52 3 -68 24 -34 43 -93 171 -84 180 5 4 70 29 144 54 158 55 281 108 405 175 50 27 93 46 96 42 3 -3 11 -33 18 -65z m2039 -168 c38 -57 104 -148 147 -203 42 -55 123 -161 180 -235 231 -303 404 -488 1172 -1262 337 -339 613 -621 613 -626 0 -18 -59 -166 -79 -199 -28 -45 -68 -53 -273 -53 l-177 0 -199 263 c-304 401 -430 578 -601 841 -244 375 -326 484 -347 463 -11 -10 60 -123 367 -582 311 -465 412 -606 735 -1033 285 -375 315 -424 236 -383 -20 10 -84 34 -142 52 -133 42 -211 43 -319 5 -118 -41 -122 -40 -165 54 -64 141 -601 1439 -788 1905 -99 248 -238 590 -309 761 -119 287 -136 334 -125 334 2 0 36 -46 74 -102z m-1828 -27 c218 -265 474 -636 626 -912 32 -57 82 -144 111 -194 72 -123 234 -451 333 -675 93 -210 270 -637 270 -651 0 -5 -32 -9 -70 -9 -150 0 -174 -43 -230 -415 -11 -76 -23 -141 -25 -143 -2 -2 -9 16 -15 39 -46 178 -132 467 -189 639 -137 411 -315 908 -376 1050 -136 316 -228 517 -363 795 -77 160 -150 318 -161 352 -28 83 -29 223 -1 223 4 0 45 -45 90 -99z m790 73 c250 -8 479 -19 509 -24 72 -13 170 -13 248 1 83 14 108 7 122 -33 20 -57 14 -58 -338 -58 -356 0 -846 15 -1026 30 -183 16 -235 28 -270 64 l-30 30 25 7 c14 4 88 6 165 3 77 -2 345 -11 595 -20z m-990 -184 c0 -52 -247 -164 -442 -200 -72 -13 -98 -9 -98 14 0 17 15 23 105 42 91 19 166 46 295 105 105 49 140 58 140 39z m968 -6 l52 -5 0 -83 c0 -202 -33 -716 -49 -759 -6 -15 -22 5 -81 99 -103 167 -224 344 -360 524 -143 191 -160 215 -160 230 0 9 66 10 273 6 149 -4 296 -9 325 -12z m225 -20 c34 -5 47 -12 56 -30 29 -65 21 -353 -19 -669 -29 -223 -55 -305 -97 -305 -8 0 -28 7 -45 16 l-31 16 7 162 c3 88 10 211 16 271 5 61 9 205 9 321 1 116 4 214 8 217 8 9 37 9 96 1z m703 -10 c28 -5 37 -16 77 -97 25 -51 81 -180 125 -287 44 -107 116 -280 159 -385 108 -258 114 -275 103 -275 -5 0 -40 20 -77 44 -163 105 -422 176 -533 146 -40 -11 -43 -13 -27 -25 10 -7 43 -16 74 -20 123 -15 343 -84 343 -107 0 -6 -7 -7 -17 -2 -10 4 -217 10 -460 12 -274 2 -443 7 -443 13 0 5 8 26 19 47 57 113 115 729 82 881 -9 43 -9 56 1 63 13 9 516 2 574 -8z m-1918 -205 c-3 -117 -4 -122 -30 -144 -34 -29 -128 -60 -242 -80 -124 -21 -125 -21 -143 23 -37 85 -62 167 -53 176 4 4 49 17 99 27 107 22 224 60 289 94 84 43 84 43 80 -96z m5814 97 c37 -26 100 -135 123 -213 13 -47 -14 -21 -46 43 -58 117 -118 161 -183 135 -76 -31 -260 -91 -268 -89 -15 5 180 109 241 129 57 18 101 17 133 -5z m-425 -79 c-16 -24 -47 -35 -47 -18 0 6 9 20 20 31 27 27 47 16 27 -13z m-5220 -134 c199 -420 499 -1209 721 -1899 123 -381 138 -435 129 -457 -18 -47 -280 -188 -427 -231 -138 -39 -259 -50 -575 -49 -275 0 -475 12 -557 34 -32 8 -44 21 -88 92 -66 105 -165 308 -182 370 -12 46 -11 51 17 105 40 76 102 152 123 152 22 0 51 -30 138 -145 80 -106 175 -217 181 -211 8 7 -26 65 -135 228 -58 88 -101 163 -96 167 8 8 229 96 386 155 l67 25 97 -105 c260 -280 648 -572 749 -562 16 2 30 8 29 13 0 6 -40 31 -88 56 -100 54 -194 123 -342 251 -139 120 -374 350 -374 365 0 7 27 26 59 43 57 28 91 61 91 86 0 6 -16 28 -35 49 -33 34 -35 39 -20 55 8 9 41 30 72 46 74 37 181 138 217 205 26 47 28 58 23 123 -7 86 -46 223 -94 331 -98 221 -172 502 -175 672 -1 83 8 173 18 173 3 0 35 -62 71 -137z m5613 82 c31 -16 63 -51 83 -90 20 -39 50 -145 44 -151 -3 -3 -22 26 -42 65 -21 39 -53 84 -71 101 -67 58 -175 64 -293 15 -64 -26 -182 -38 -210 -21 -25 16 6 26 107 36 67 6 116 17 142 30 79 40 179 46 240 15z m-6266 -178 c25 -100 35 -458 15 -529 -12 -46 -35 -49 -44 -8 -9 40 -9 535 0 549 10 18 22 13 29 -12z m478 -22 c3 -30 -166 -83 -278 -87 -130 -6 -64 30 141 75 117 26 136 28 137 12z m2 -107 c25 -40 49 -173 36 -198 -17 -31 -42 -37 -185 -41 l-130 -4 -23 47 c-13 26 -26 65 -29 87 -7 49 -4 51 169 96 153 40 145 39 162 13z m5645 -47 c11 -7 10 -10 -5 -14 -42 -13 -202 -19 -220 -9 -20 11 -23 10 51 25 38 8 160 7 174 -2z m-166 -110 c139 -9 152 -12 205 -42 31 -17 71 -39 87 -48 21 -11 55 -16 110 -16 75 0 86 3 168 44 86 43 89 44 160 37 70 -6 149 -23 116 -25 -46 -3 -207 -58 -304 -106 -60 -29 -124 -56 -142 -60 -53 -11 -108 11 -170 69 -32 29 -69 56 -82 59 -13 3 -73 2 -134 -4 -135 -12 -179 -2 -207 44 -11 18 -20 40 -20 51 0 15 5 17 33 12 17 -3 99 -10 180 -15z m-9802 -53 c52 -92 59 -139 33 -229 -31 -107 -161 -339 -189 -339 -17 0 -85 79 -85 98 0 7 25 41 55 75 89 98 129 198 141 355 4 45 10 82 14 82 3 0 17 -19 31 -42z m10224 2 c-3 -5 -12 -10 -20 -10 -8 0 -17 5 -20 10 -4 6 5 10 20 10 15 0 24 -4 20 -10z m-5825 -89 c0 -15 -39 -21 -166 -28 -116 -6 -184 0 -169 15 17 17 335 29 335 13z m-431 -51 c13 -62 14 -162 2 -140 -5 8 -14 50 -20 93 -13 95 -13 97 -2 97 5 0 14 -23 20 -50z m517 -115 c24 -52 44 -99 44 -105 0 -22 -408 -3 -436 21 -10 8 -14 35 -14 90 l0 78 88 4 c48 1 129 4 180 5 l93 2 45 -95z m-567 -66 c6 -18 11 -49 11 -70 0 -52 -26 -69 -107 -69 -55 0 -64 3 -78 24 -9 13 -18 46 -22 74 l-6 51 39 6 c22 4 44 8 49 10 6 2 31 4 57 4 43 1 47 -1 57 -30z m2587 -4 c199 -38 270 -83 304 -193 11 -36 18 -67 16 -69 -2 -3 -55 36 -116 86 -73 58 -144 106 -201 133 -49 24 -89 46 -89 50 0 10 -5 11 86 -7z m-2084 -95 c117 -9 163 -21 155 -43 -6 -19 -99 -20 -238 -3 -153 19 -229 34 -229 47 0 11 160 11 312 -1z m-167 -80 c97 -16 205 -30 241 -30 91 0 108 -11 100 -63 -15 -99 -106 -215 -218 -281 l-48 -28 -47 40 c-27 22 -59 52 -73 67 -14 15 -67 61 -118 102 -73 58 -92 80 -90 96 2 18 10 22 38 22 46 0 60 10 60 46 0 32 -19 39 -40 14 -7 -9 -15 -14 -17 -12 -7 7 16 57 26 57 6 0 89 -13 186 -30z m-297 -19 c4 -24 -15 -54 -29 -45 -11 6 -12 58 -2 68 12 12 28 0 31 -23z m-114 -29 c2 -4 -6 -102 -19 -217 -29 -252 -40 -423 -31 -460 6 -24 10 -27 37 -21 42 8 171 74 282 144 51 32 107 64 124 71 64 26 118 -14 71 -53 -46 -37 -181 -98 -585 -263 -18 -7 -17 170 2 462 22 335 24 345 80 345 18 0 36 -4 39 -8z m5356 -76 c0 -17 44 -300 60 -386 11 -58 33 -185 50 -284 34 -200 55 -291 107 -451 42 -129 73 -195 119 -249 18 -21 31 -43 28 -47 -3 -5 -23 -6 -45 -3 -53 9 -51 -7 9 -62 l47 -44 -55 0 -55 -1 48 -40 c26 -23 47 -47 47 -55 0 -9 -18 -16 -51 -20 -95 -13 -106 -47 -64 -199 36 -131 34 -177 -15 -271 -47 -92 -115 -184 -135 -184 -20 0 -22 14 -34 271 -21 414 -57 731 -142 1237 -72 431 -74 473 -23 610 39 104 79 182 94 182 6 0 10 -2 10 -4z m-5152 -96 c3 -21 2 -22 -12 -11 -19 16 -21 44 -3 39 6 -3 14 -15 15 -28z m-66 -19 c75 -61 242 -220 237 -225 -12 -12 -136 -66 -152 -66 -19 0 -189 158 -185 171 2 4 19 18 38 31 42 28 46 59 10 68 -18 4 -26 14 -28 33 -5 39 23 35 80 -12z m248 -136 c53 -54 62 -82 18 -53 -30 20 -158 150 -158 161 0 14 83 -50 140 -108z m-306 -176 c14 -17 26 -36 26 -44 0 -7 -21 -27 -47 -44 l-48 -31 -3 52 c-6 101 22 127 72 67z m5055 -96 c50 -191 140 -789 160 -1058 12 -153 15 -568 5 -578 -4 -4 -20 13 -36 36 -16 23 -53 73 -83 112 -98 125 -95 171 10 167 43 -2 59 2 75 18 28 28 25 58 -21 221 -116 410 -169 672 -176 874 -5 130 -4 144 17 193 12 28 26 52 31 52 4 0 13 -17 18 -37z m-5386 -156 c16 -10 26 -24 24 -31 -6 -16 -156 -214 -168 -221 -26 -17 -23 16 11 122 21 65 43 130 50 145 14 30 22 28 83 -15z m5269 -142 c14 -240 81 -555 159 -746 46 -111 43 -134 -11 -94 -38 28 -70 33 -70 10 0 -8 23 -40 50 -70 28 -30 50 -57 50 -60 0 -16 -35 1 -85 40 -32 24 -61 42 -65 40 -4 -2 -10 -40 -14 -84 -7 -92 0 -118 65 -218 l40 -61 -41 -73 c-61 -108 -93 -144 -151 -169 -52 -22 -165 -47 -173 -39 -3 3 4 37 14 77 25 96 67 365 81 522 6 71 8 187 4 270 -9 206 -34 639 -39 678 -5 33 -4 34 77 72 45 21 87 38 92 36 6 -1 13 -60 17 -131z m-8885 -104 c-12 -132 -139 -285 -309 -372 -42 -21 -59 -26 -65 -17 -4 7 -9 65 -11 129 -5 129 3 159 43 159 58 0 265 91 304 134 37 39 44 33 38 -33z m5926 -73 c9 -5 17 -16 17 -25 0 -14 -9 -15 -65 -10 -62 6 -113 23 -101 34 20 20 110 21 149 1z m1881 -457 c8 -13 -68 -115 -99 -131 -58 -31 -87 35 -37 83 41 40 124 69 136 48z m1826 -606 c48 -51 32 -193 -38 -335 -62 -127 -232 -279 -276 -247 -18 13 -36 103 -36 177 0 54 14 75 98 155 63 59 112 125 164 224 32 58 52 64 88 26z m-541 -130 c17 -66 -1 -132 -60 -219 -72 -109 -236 -256 -334 -302 -74 -35 -78 -27 -69 134 4 71 10 135 14 142 4 6 41 20 83 30 42 11 95 29 118 40 57 29 125 95 156 149 51 90 53 93 68 81 7 -6 18 -30 24 -55z m86 -418 l7 -37 -126 0 c-69 0 -126 2 -126 4 0 2 32 35 70 72 67 64 138 176 141 223 1 9 7 -38 14 -104 7 -66 16 -137 20 -158z" fill="#e2e8f0"/>
<path d="M3572 11898 c-15 -15 -16 -48 -2 -48 13 0 50 37 50 50 0 14 -33 13 -48 -2z" fill="#e2e8f0"/>
<path d="M3651 11858 c-9 -25 -4 -48 10 -48 11 0 29 34 29 54 0 24 -30 19 -39 -6z" fill="#e2e8f0"/>
<path d="M3450 11590 c-17 -33 -9 -75 15 -75 17 0 20 7 20 44 0 49 -17 64 -35 31z" fill="#e2e8f0"/>
<path d="M3537 11563 c-12 -11 -7 -60 6 -72 19 -15 27 -4 27 41 0 36 -15 50 -33 31z" fill="#e2e8f0"/>
<path d="M3236 11278 c-20 -28 -20 -38 -2 -38 17 0 48 39 40 52 -9 14 -22 9 -38 -14z" fill="#e2e8f0"/>
<path d="M3331 11281 c-16 -28 -14 -71 3 -71 22 0 38 26 34 56 -4 34 -23 42 -37 15z" fill="#e2e8f0"/>
<path d="M3422 11223 c4 -36 33 -39 33 -3 0 16 -6 26 -18 28 -15 3 -18 -2 -15 -25z" fill="#e2e8f0"/>
<path d="M3493 11195 c-3 -9 -3 -18 0 -22 10 -10 37 6 37 22 0 20 -29 20 -37 0z" fill="#e2e8f0"/>
<path d="M3014 10766 c-9 -23 0 -51 16 -51 10 0 15 10 15 29 0 32 -21 47 -31 22z" fill="#e2e8f0"/>
<path d="M3125 10740 c-4 -7 -3 -16 3 -22 14 -14 57 -6 57 12 0 18 -50 26 -60 10z" fill="#e2e8f0"/>
<path d="M3236 10715 c-3 -9 1 -18 10 -22 19 -7 39 11 30 26 -10 16 -33 13 -40 -4z" fill="#e2e8f0"/>
<path d="M3333 10714 c-3 -8 1 -23 10 -31 13 -14 19 -14 32 -3 14 12 14 15 -1 31 -21 23 -33 24 -41 3z" fill="#e2e8f0"/>
<path d="M3440 10676 c0 -29 17 -43 33 -27 8 8 9 16 1 28 -17 27 -34 27 -34 -1z" fill="#e2e8f0"/>
<path d="M3893 10604 c-18 -8 -16 -49 2 -64 26 -22 50 -8 50 30 0 28 -4 35 -20 37 -11 1 -26 -1 -32 -3z" fill="#e2e8f0"/>
<path d="M4038 10519 c-27 -15 -22 -48 8 -55 34 -9 64 18 48 44 -14 21 -33 25 -56 11z" fill="#e2e8f0"/>
<path d="M3864 10420 c-47 -19 -35 -70 16 -70 35 0 46 25 25 56 -9 13 -16 24 -18 23 -1 0 -11 -4 -23 -9z" fill="#e2e8f0"/>
<path d="M4096 10385 c-22 -22 -20 -52 4 -60 27 -8 40 1 40 29 0 35 -24 51 -44 31z" fill="#e2e8f0"/>
<path d="M3972 10248 c2 -15 11 -24 26 -26 24 -4 30 16 10 36 -20 20 -40 14 -36 -10z" fill="#e2e8f0"/>
<path d="M4061 10142 c-24 -46 47 -72 85 -31 18 20 18 21 -1 35 -27 20 -72 18 -84 -4z" fill="#e2e8f0"/>
<path d="M3016 10398 c4 -18 10 -51 13 -73 5 -31 10 -40 26 -40 25 0 32 51 15 108 -9 30 -16 37 -36 37 -24 0 -25 -2 -18 -32z" fill="#e2e8f0"/>
<path d="M3399 10398 c-2 -24 3 -53 13 -72 10 -19 11 -19 30 4 28 34 20 74 -14 78 -18 2 -28 -2 -29 -10z" fill="#e2e8f0"/>
<path d="M3530 10345 c0 -14 5 -25 10 -25 6 0 10 11 10 25 0 14 -4 25 -10 25 -5 0 -10 -11 -10 -25z" fill="#e2e8f0"/>
<path d="M4683 8524 c-12 -9 -54 -20 -95 -25 -106 -15 -174 -60 -113 -75 35 -9 158 12 212 36 37 16 43 23 43 49 0 34 -13 38 -47 15z" fill="#e2e8f0"/>
<path d="M4583 9700 c-42 -17 -21 -60 29 -60 36 0 98 25 98 40 0 25 -82 38 -127 20z" fill="#e2e8f0"/>
<path d="M4594 9540 c-30 -12 -38 -28 -24 -45 15 -18 50 -19 84 -4 67 31 9 77 -60 49z" fill="#e2e8f0"/>
<path d="M4607 9414 c-41 -22 -29 -39 29 -39 46 0 49 2 49 25 0 31 -36 37 -78 14z" fill="#e2e8f0"/>
<path d="M4583 9293 c-26 -5 -31 -34 -9 -52 21 -18 97 -10 110 11 7 11 7 21 1 27 -13 12 -73 20 -102 14z" fill="#e2e8f0"/>
<path d="M4583 9130 c-32 -13 -28 -35 8 -50 26 -11 36 -10 65 3 41 20 43 34 8 47 -30 12 -51 12 -81 0z" fill="#e2e8f0"/>
<path d="M4560 9002 c0 -26 20 -42 51 -42 60 0 81 32 33 50 -43 17 -84 13 -84 -8z" fill="#e2e8f0"/>
<path d="M4583 8890 c-27 -11 -30 -35 -7 -44 55 -21 109 11 69 40 -21 16 -31 16 -62 4z" fill="#e2e8f0"/>
<path d="M4988 9293 c-26 -7 -22 -32 6 -39 61 -15 100 16 45 35 -18 6 -32 10 -33 10 -1 -1 -9 -3 -18 -6z" fill="#e2e8f0"/>
<path d="M4955 9160 c-19 -31 52 -53 96 -29 16 8 18 13 8 25 -13 16 -95 19 -104 4z" fill="#e2e8f0"/>
<path d="M4930 9010 c-13 -8 -13 -11 0 -23 39 -37 132 -24 117 17 -5 12 -19 16 -54 16 -26 0 -55 -5 -63 -10z" fill="#e2e8f0"/>
<path d="M4214 9381 c-38 -23 -48 -37 -40 -57 5 -13 10 -13 38 2 18 9 43 25 55 37 42 37 1 51 -53 18z" fill="#e2e8f0"/>
<path d="M4250 9298 c-27 -10 -70 -47 -70 -60 0 -15 42 -8 76 13 50 30 45 66 -6 47z" fill="#e2e8f0"/>
<path d="M4218 9169 c-24 -14 -23 -39 2 -39 29 0 82 29 75 40 -8 13 -55 12 -77 -1z" fill="#e2e8f0"/>
<path d="M4255 9060 c-33 -13 -50 -39 -36 -53 9 -9 20 -7 47 8 49 26 39 66 -11 45z" fill="#e2e8f0"/>
<path d="M4230 8910 c-23 -23 -18 -42 8 -33 32 12 62 35 56 44 -9 16 -43 10 -64 -11z" fill="#e2e8f0"/>
<path d="M4255 8810 c-12 -4 -26 -15 -33 -23 -21 -25 4 -31 40 -10 44 26 39 52 -7 33z" fill="#e2e8f0"/>
<path d="M4242 8697 c-29 -31 -28 -39 6 -35 21 2 28 9 30 31 4 33 -8 34 -36 4z" fill="#e2e8f0"/>
<path d="M899 7956 c-134 -47 -209 -152 -209 -290 0 -120 52 -200 165 -252 166 -78 375 55 415 264 22 118 -35 214 -162 272 -51 23 -154 26 -209 6z m177 -95 c48 -22 87 -69 109 -130 19 -56 19 -80 -2 -103 -16 -17 -17 -17 -27 4 -21 41 -229 138 -297 138 -67 0 -77 27 -23 61 84 51 169 62 240 30z m-166 -170 c0 -11 -78 -31 -119 -31 -38 0 -49 17 -19 29 30 12 138 14 138 2z m175 -86 c79 -28 85 -38 46 -79 -51 -53 -122 -80 -193 -73 -68 6 -109 28 -152 80 -24 30 -28 41 -20 55 18 27 39 21 39 -12 1 -41 38 -68 88 -64 72 5 76 55 8 90 -18 9 -36 19 -39 23 -13 14 173 -3 223 -20z" fill="#e2e8f0"/>
<path d="M3920 8603 c-25 -9 -50 -35 -44 -45 7 -12 62 -1 92 18 12 8 20 19 17 24 -7 11 -40 12 -65 3z" fill="#e2e8f0"/>
<path d="M9432 4677 c-20 -24 -24 -67 -11 -119 17 -74 62 -179 98 -232 17 -25 31 -53 31 -63 0 -10 -21 -39 -46 -63 -76 -76 -112 -149 -94 -196 5 -13 14 -24 19 -24 5 0 24 27 41 59 19 35 62 88 102 127 l69 67 -65 131 c-37 73 -74 164 -84 206 -17 68 -37 120 -46 120 -2 0 -8 -6 -14 -13z" fill="#e2e8f0"/>
<path d="M8790 4532 c0 -4 14 -29 30 -55 43 -68 57 -106 91 -241 34 -135 58 -188 136 -299 108 -156 121 -199 78 -258 -48 -66 -75 -132 -75 -186 0 -48 4 -57 59 -125 67 -84 91 -127 91 -162 0 -37 18 -78 33 -74 21 8 57 70 57 101 0 45 -58 144 -111 189 l-47 39 34 56 c47 79 57 116 51 191 -4 49 -14 83 -44 141 -22 42 -63 121 -92 176 -28 55 -63 138 -78 185 -38 127 -86 223 -138 279 -43 46 -75 64 -75 43z" fill="#e2e8f0"/>
<path d="M8660 4434 c0 -10 16 -40 35 -69 23 -35 45 -90 65 -166 17 -63 40 -134 51 -158 24 -55 24 -54 -8 -47 -44 12 -109 62 -175 138 -92 105 -125 138 -137 138 -26 0 79 -161 148 -228 24 -24 87 -74 140 -112 53 -37 117 -91 142 -119 91 -100 109 -40 33 106 -87 166 -103 201 -140 315 -20 62 -45 129 -55 149 -28 55 -99 93 -99 53z" fill="#e2e8f0"/>
<path d="M3927 5593 c-13 -13 -7 -72 9 -88 22 -22 38 -14 42 19 5 41 -31 90 -51 69z" fill="#e2e8f0"/>
<path d="M3809 5536 c-25 -53 25 -101 55 -53 8 13 7 24 -4 44 -21 36 -38 39 -51 9z" fill="#e2e8f0"/>
<path d="M3677 5503 c-12 -12 -7 -60 7 -72 35 -30 64 30 30 63 -17 17 -27 20 -37 9z" fill="#e2e8f0"/>
<path d="M4314 5315 c-15 -37 21 -125 44 -111 19 12 15 91 -6 109 -23 21 -31 21 -38 2z" fill="#e2e8f0"/>
<path d="M4186 5264 c-15 -39 7 -143 32 -152 22 -7 45 46 38 90 -10 63 -55 102 -70 62z" fill="#e2e8f0"/>
<path d="M4056 5225 c-22 -22 -20 -42 7 -95 32 -65 52 -60 52 12 0 45 -5 63 -21 79 -20 19 -22 19 -38 4z" fill="#e2e8f0"/>
<path d="M3900 5181 c0 -5 5 -33 12 -61 13 -56 29 -70 54 -49 18 15 14 80 -6 104 -14 16 -60 21 -60 6z" fill="#e2e8f0"/>
<path d="M4564 4879 c-9 -14 -8 -115 1 -129 14 -22 45 21 45 62 0 59 -27 98 -46 67z" fill="#e2e8f0"/>
<path d="M4426 4821 c-3 -4 -1 -23 4 -42 6 -19 10 -46 10 -62 0 -35 27 -48 47 -21 18 24 11 88 -13 115 -18 20 -39 25 -48 10z" fill="#e2e8f0"/>
<path d="M4286 4772 c-7 -11 11 -78 31 -116 15 -28 16 -29 29 -11 19 25 18 85 -2 113 -15 22 -48 30 -58 14z" fill="#e2e8f0"/>
<path d="M4162 4712 c-10 -7 -9 -18 7 -55 21 -49 29 -55 49 -35 20 20 14 65 -10 82 -26 18 -28 19 -46 8z" fill="#e2e8f0"/>
<path d="M4737 4493 c-11 -10 -8 -72 3 -94 15 -28 38 -23 47 9 9 34 5 52 -14 75 -17 18 -26 21 -36 10z" fill="#e2e8f0"/>
<path d="M4592 4408 c-17 -17 -15 -103 3 -118 32 -27 63 36 47 95 -9 33 -30 43 -50 23z" fill="#e2e8f0"/>
<path d="M4474 4358 c-11 -18 -9 -97 3 -109 16 -16 31 -3 44 40 8 29 8 43 0 60 -13 23 -36 28 -47 9z" fill="#e2e8f0"/>
<path d="M4362 4338 c-15 -15 -16 -87 -2 -108 17 -25 53 26 46 64 -9 41 -28 60 -44 44z" fill="#e2e8f0"/>
<path d="M4244 4315 c-13 -32 15 -95 42 -95 22 0 18 73 -4 93 -23 21 -31 21 -38 2z" fill="#e2e8f0"/>
<path d="M4710 3991 c-21 -40 -7 -123 19 -107 15 10 33 83 26 106 -8 25 -31 26 -45 1z" fill="#e2e8f0"/>
<path d="M4586 3945 c-10 -27 -7 -93 5 -101 18 -11 29 17 27 65 -3 45 -21 65 -32 36z" fill="#e2e8f0"/>
<path d="M4455 3893 c8 -56 12 -63 30 -63 16 0 25 22 25 59 0 32 -16 51 -43 51 -17 0 -19 -5 -12 -47z" fill="#e2e8f0"/>
<path d="M4752 3588 c-17 -17 -15 -73 3 -88 33 -28 65 24 45 74 -10 28 -29 33 -48 14z" fill="#e2e8f0"/>
<path d="M4646 3564 c-20 -20 -20 -48 -1 -64 32 -27 58 15 39 64 -8 20 -18 20 -38 0z" fill="#e2e8f0"/>
<path d="M4540 3526 c0 -13 3 -31 6 -40 11 -29 24 -16 24 24 0 29 -4 40 -15 40 -9 0 -15 -9 -15 -24z" fill="#e2e8f0"/>
<path d="M4620 3215 c-10 -12 -10 -21 -1 -41 15 -34 64 -31 69 4 7 44 -41 70 -68 37z" fill="#e2e8f0"/>
<path d="M4897 3223 c-12 -11 -8 -68 6 -88 18 -24 37 -11 37 26 0 48 -24 82 -43 62z" fill="#e2e8f0"/>
<path d="M4764 3185 c-12 -46 35 -75 56 -35 16 30 3 60 -25 60 -18 0 -26 -7 -31 -25z" fill="#e2e8f0"/>
<path d="M4686 2859 c-24 -29 -35 -69 -18 -69 14 0 63 37 78 59 34 47 -21 57 -60 10z" fill="#e2e8f0"/>
<path d="M4803 2818 c-27 -30 -45 -66 -38 -77 16 -26 100 42 93 75 -5 27 -31 28 -55 2z" fill="#e2e8f0"/>
<path d="M4938 2803 c-34 -40 -88 -115 -88 -124 0 -15 43 -10 75 10 34 20 71 91 62 115 -8 21 -30 20 -49 -1z" fill="#e2e8f0"/>
<path d="M4493 2605 c-24 -17 -30 -40 -13 -50 16 -10 72 25 68 43 -4 23 -28 26 -55 7z" fill="#e2e8f0"/>
<path d="M4572 2515 c-35 -15 -38 -31 -9 -49 13 -8 23 -4 46 18 46 44 27 59 -37 31z" fill="#e2e8f0"/>
<path d="M4017 2113 c-10 -9 -8 -53 2 -53 5 0 14 7 21 15 20 24 -2 59 -23 38z" fill="#e2e8f0"/>
</g>
</svg>